<svg version="1.1" id="Layer_1" xmlns="http://www.w3.org/2000/svg" xmlns:xlink="http://www.w3.org/1999/xlink" x="0px" y="0px"
	 width="100%" viewBox="0 0 298 296" enable-background="new 0 0 298 296" xml:space="preserve">
<path fill="#FEFEFE" opacity="1.000000" stroke="none" 
	d="
M43.000000,1.000000 
	C113.687561,1.000000 184.375122,1.000000 255.274475,1.353832 
	C261.488678,3.957818 267.973572,5.393865 273.402618,8.611463 
	C289.402893,18.094276 296.321991,32.797962 296.300781,51.222942 
	C296.217712,123.324821 296.258942,195.426834 296.270355,267.528809 
	C296.270721,269.682922 296.452332,271.837006 296.433105,274.447083 
	C296.316833,281.323425 296.316833,287.743774 296.316833,294.544556 
	C283.489502,294.544556 271.384338,294.507874 259.279510,294.553284 
	C241.854752,294.618652 224.430191,294.743744 206.548691,294.725037 
	C184.105362,294.581207 162.118896,294.565216 140.132446,294.527802 
	C109.651352,294.475952 79.156929,294.943237 48.693298,294.182983 
	C22.854515,293.538147 4.006815,273.750580 3.938114,248.039566 
	C3.757857,180.579117 3.873096,113.117821 3.939552,45.656929 
	C3.942555,42.607433 4.184320,39.427475 5.055182,36.530849 
	C10.512155,18.380054 22.682676,7.306220 41.073273,2.911985 
	C41.824886,2.732395 42.362621,1.657676 43.000000,1.000000 
M166.080017,14.204862 
	C136.716766,14.267805 107.353523,14.330748 77.072067,14.206749 
	C68.409706,14.195292 59.744026,14.024592 51.085644,14.204659 
	C31.479752,14.612394 16.181873,28.867819 16.141640,47.302528 
	C15.995487,114.270111 15.985157,181.238388 16.133307,248.205948 
	C16.175072,267.085632 30.836500,281.968079 49.722599,282.047729 
	C105.528038,282.283081 161.335083,282.156982 217.141388,282.088623 
	C218.641449,282.086792 220.573105,281.559204 221.574890,280.552032 
	C236.836456,265.208862 251.976318,249.744659 267.764404,234.019791 
	C272.230133,229.537888 276.887421,225.224792 281.062500,220.486801 
	C282.621277,218.717880 283.854706,215.965256 283.877106,213.648041 
	C284.086487,192.003311 284.000061,170.355713 283.999329,148.708954 
	C283.998169,115.739265 284.078583,82.769287 283.965668,49.799984 
	C283.897003,29.751827 270.698639,14.917673 250.897278,14.429331 
	C222.948624,13.740060 194.968201,14.338970 166.080017,14.204862 
z"/>
<path fill="#4A4A4A" opacity="1.000000" stroke="none" 
	d="
M42.531342,1.000000 
	C42.362621,1.657676 41.824886,2.732395 41.073273,2.911985 
	C22.682676,7.306220 10.512155,18.380054 5.055182,36.530849 
	C4.184320,39.427475 3.942555,42.607433 3.939552,45.656929 
	C3.873096,113.117821 3.757857,180.579117 3.938114,248.039566 
	C4.006815,273.750580 22.854515,293.538147 48.693298,294.182983 
	C79.156929,294.943237 109.651352,294.475952 140.132446,294.527802 
	C162.118896,294.565216 184.105362,294.581207 206.546936,295.084534 
	C207.001373,296.041595 207.000687,296.520782 207.000000,297.000000 
	C138.388580,297.000000 69.777161,297.000000 1.082868,297.000000 
	C1.082868,198.333374 1.082868,99.666695 1.089292,1.000011 
	C14.751372,1.000000 28.407028,1.000000 42.531342,1.000000 
z"/>
<path fill="#4F4F4F" opacity="1.000000" stroke="none" 
	d="
M296.549408,273.991119 
	C296.452332,271.837006 296.270721,269.682922 296.270355,267.528809 
	C296.258942,195.426834 296.217712,123.324821 296.300781,51.222942 
	C296.321991,32.797962 289.402893,18.094276 273.402618,8.611463 
	C267.973572,5.393865 261.488678,3.957818 255.743134,1.353832 
	C270.313477,1.000000 284.626923,1.000000 299.000000,1.000000 
	C299.000000,91.687553 299.000000,182.375122 298.693542,273.531342 
	C297.774536,273.997040 297.161957,273.994080 296.549408,273.991119 
z"/>
<path fill="#4E4E4E" opacity="1.000000" stroke="none" 
	d="
M296.433105,274.447083 
	C297.161957,273.994080 297.774536,273.997040 298.693542,274.000000 
	C299.000000,281.637390 299.000000,289.274750 299.000000,297.000000 
	C268.645813,297.000000 238.291565,297.000000 207.468658,297.000000 
	C207.000687,296.520782 207.001373,296.041595 207.003815,295.202850 
	C224.430191,294.743744 241.854752,294.618652 259.279510,294.553284 
	C271.384338,294.507874 283.489502,294.544556 296.316833,294.544556 
	C296.316833,287.743774 296.316833,281.323425 296.433105,274.447083 
z"/>
<path fill="#4C4C4C" opacity="1.000000" stroke="none" 
	d="
M267.144623,234.308716 
	C251.976318,249.744659 236.836456,265.208862 221.574890,280.552032 
	C220.573105,281.559204 218.641449,282.086792 217.141388,282.088623 
	C161.335083,282.156982 105.528038,282.283081 49.722599,282.047729 
	C30.836500,281.968079 16.175072,267.085632 16.133307,248.205948 
	C15.985157,181.238388 15.995487,114.270111 16.141640,47.302528 
	C16.181873,28.867819 31.479752,14.612394 51.085644,14.204659 
	C59.744026,14.024592 68.409706,14.195292 77.546783,14.643269 
	C79.174126,16.296867 80.326744,17.513947 81.708931,18.973438 
	C81.228905,19.962854 80.610527,21.237431 80.426559,21.616617 
	C81.483627,24.621971 82.241417,26.776424 82.537880,29.019667 
	C76.577377,29.122978 71.074265,29.008217 65.579712,29.175072 
	C45.065060,29.798050 31.046078,44.251434 31.040915,64.749565 
	C31.026981,120.075958 31.381638,175.405609 30.856260,230.726990 
	C30.671581,250.173569 45.828308,267.674591 67.634361,267.360840 
	C111.619667,266.727997 155.620834,267.235779 199.614471,267.046661 
	C202.210281,267.035522 205.417511,265.657074 207.291199,263.835724 
	C223.178619,248.391891 238.822327,232.697327 254.711578,217.437134 
	C258.970886,223.300430 263.057739,228.804581 267.144623,234.308716 
z"/>
<path fill="#515151" opacity="1.000000" stroke="none" 
	d="
M267.454529,234.164246 
	C263.057739,228.804581 258.970886,223.300430 254.869553,217.172607 
	C258.379852,213.008636 261.759125,209.305511 265.477936,205.982437 
	C268.184784,203.563660 269.121246,200.956924 269.110199,197.307495 
	C268.979126,153.981796 269.029572,110.655556 269.029205,67.329460 
	C269.028992,42.917725 255.313828,29.182573 230.970245,29.138048 
	C211.646240,29.102701 192.322357,29.004194 172.989441,28.556053 
	C170.987411,23.581305 168.994385,18.984238 167.001358,14.387169 
	C194.968201,14.338970 222.948624,13.740060 250.897278,14.429331 
	C270.698639,14.917673 283.897003,29.751827 283.965668,49.799984 
	C284.078583,82.769287 283.998169,115.739265 283.999329,148.708954 
	C284.000061,170.355713 284.086487,192.003311 283.877106,213.648041 
	C283.854706,215.965256 282.621277,218.717880 281.062500,220.486801 
	C276.887421,225.224792 272.230133,229.537888 267.454529,234.164246 
z"/>
<path fill="#4E4E4E" opacity="1.000000" stroke="none" 
	d="
M166.540680,14.296017 
	C168.994385,18.984238 170.987411,23.581305 172.527802,28.643044 
	C142.383163,29.048771 112.691177,28.989824 82.999199,28.930878 
	C82.241417,26.776424 81.483627,24.621971 80.426559,21.616617 
	C80.610527,21.237431 81.228905,19.962854 81.708931,18.973438 
	C80.326744,17.513947 79.174126,16.296867 78.005890,14.736739 
	C107.353523,14.330748 136.716766,14.267805 166.540680,14.296017 
z"/>
<path fill="#FAFAFA" opacity="1.000000" stroke="none" 
	d="
M82.537880,29.019667 
	C112.691177,28.989824 142.383163,29.048771 172.536774,29.020725 
	C192.322357,29.004194 211.646240,29.102701 230.970245,29.138048 
	C255.313828,29.182573 269.028992,42.917725 269.029205,67.329460 
	C269.029572,110.655556 268.979126,153.981796 269.110199,197.307495 
	C269.121246,200.956924 268.184784,203.563660 265.477936,205.982437 
	C261.759125,209.305511 258.379852,213.008636 254.697128,216.813446 
	C238.822327,232.697327 223.178619,248.391891 207.291199,263.835724 
	C205.417511,265.657074 202.210281,267.035522 199.614471,267.046661 
	C155.620834,267.235779 111.619667,266.727997 67.634361,267.360840 
	C45.828308,267.674591 30.671581,250.173569 30.856260,230.726990 
	C31.381638,175.405609 31.026981,120.075958 31.040915,64.749565 
	C31.046078,44.251434 45.065060,29.798050 65.579712,29.175072 
	C71.074265,29.008217 76.577377,29.122978 82.537880,29.019667 
M227.693207,234.785263 
	C231.116974,231.379227 234.543854,227.976273 237.963867,224.566483 
	C244.625366,217.924896 251.083267,211.060776 258.022064,204.722992 
	C261.793610,201.278076 263.063965,197.666626 263.038361,192.594772 
	C262.828094,150.947372 262.624115,109.295418 263.056549,67.651474 
	C263.236023,50.372524 252.735214,34.955700 230.925034,35.398609 
	C198.952286,36.047894 166.956421,35.546219 134.970444,35.568352 
	C129.983536,35.571800 124.996758,35.752140 119.092407,35.630131 
	C100.609825,35.670803 82.112999,35.278343 63.649025,35.885155 
	C48.052177,36.397743 37.271160,48.414188 37.200378,64.013588 
	C37.148235,75.504211 37.185280,86.995239 37.184772,98.486092 
	C37.182823,142.784149 37.144363,187.082245 37.199223,231.380234 
	C37.220409,248.487839 48.671692,260.856781 65.011650,260.918243 
	C109.475586,261.085480 153.940567,260.994324 198.404984,260.921722 
	C199.904816,260.919281 201.831009,260.449768 202.834610,259.462311 
	C211.011978,251.416489 219.016754,243.195251 227.693207,234.785263 
z"/>
<path fill="#4B4B4B" opacity="1.000000" stroke="none" 
	d="
M227.074066,235.027405 
	C219.016754,243.195251 211.011978,251.416489 202.834610,259.462311 
	C201.831009,260.449768 199.904816,260.919281 198.404984,260.921722 
	C153.940567,260.994324 109.475586,261.085480 65.011650,260.918243 
	C48.671692,260.856781 37.220409,248.487839 37.199223,231.380234 
	C37.144363,187.082245 37.182823,142.784149 37.184772,98.486092 
	C37.185280,86.995239 37.148235,75.504211 37.200378,64.013588 
	C37.271160,48.414188 48.052177,36.397743 63.649025,35.885155 
	C82.112999,35.278343 100.609825,35.670803 119.549164,36.147160 
	C121.214706,40.970211 124.580963,44.950569 121.529236,49.896873 
	C107.073975,49.988495 93.076172,49.754642 79.093132,50.106964 
	C63.859051,50.490803 51.973610,62.757240 51.954170,77.795906 
	C51.893883,124.434685 51.885822,171.073669 51.961708,217.712418 
	C51.989010,234.493332 64.202248,246.511856 81.102043,246.539185 
	C115.747429,246.595184 150.393250,246.619141 185.037766,246.440201 
	C187.352448,246.428238 190.148026,245.132141 191.881882,243.527679 
	C199.078384,236.868271 205.953094,229.861099 213.323792,222.993713 
	C215.471329,224.699585 217.260315,226.373734 219.005051,228.092804 
	C220.634445,229.698257 222.149994,231.425583 223.846313,232.954285 
	C224.783691,233.799042 225.989349,234.346130 227.074066,235.027405 
z"/>
<path fill="#525252" opacity="1.000000" stroke="none" 
	d="
M121.993202,49.829666 
	C124.580963,44.950569 121.214706,40.970211 120.007919,36.257439 
	C124.996758,35.752140 129.983536,35.571800 134.970444,35.568352 
	C166.956421,35.546219 198.952286,36.047894 230.925034,35.398609 
	C252.735214,34.955700 263.236023,50.372524 263.056549,67.651474 
	C262.624115,109.295418 262.828094,150.947372 263.038361,192.594772 
	C263.063965,197.666626 261.793610,201.278076 258.022064,204.722992 
	C251.083267,211.060776 244.625366,217.924896 237.963867,224.566483 
	C234.543854,227.976273 231.116974,231.379227 227.383636,234.906342 
	C225.989349,234.346130 224.783691,233.799042 223.846313,232.954285 
	C222.149994,231.425583 220.634445,229.698257 219.005051,228.092804 
	C217.260315,226.373734 215.471329,224.699585 213.448807,222.681671 
	C223.780685,211.747467 234.459351,201.227951 244.857315,190.437927 
	C246.583847,188.646255 248.000931,185.679779 248.015442,183.246948 
	C248.219116,149.106110 248.169662,114.963638 248.126801,80.821640 
	C248.123260,78.006004 248.052948,75.117630 247.449341,72.387833 
	C244.386627,58.536694 233.373596,50.058720 218.411530,50.010712 
	C186.272217,49.907578 154.132660,49.885143 121.993202,49.829666 
z"/>
<path fill="#FCFCFC" opacity="1.000000" stroke="none" 
	d="
M121.529236,49.896873 
	C154.132660,49.885143 186.272217,49.907578 218.411530,50.010712 
	C233.373596,50.058720 244.386627,58.536694 247.449341,72.387833 
	C248.052948,75.117630 248.123260,78.006004 248.126801,80.821640 
	C248.169662,114.963638 248.219116,149.106110 248.015442,183.246948 
	C248.000931,185.679779 246.583847,188.646255 244.857315,190.437927 
	C234.459351,201.227951 223.780685,211.747467 213.070953,222.669556 
	C205.953094,229.861099 199.078384,236.868271 191.881882,243.527679 
	C190.148026,245.132141 187.352448,246.428238 185.037766,246.440201 
	C150.393250,246.619141 115.747429,246.595184 81.102043,246.539185 
	C64.202248,246.511856 51.989010,234.493332 51.961708,217.712418 
	C51.885822,171.073669 51.893883,124.434685 51.954170,77.795906 
	C51.973610,62.757240 63.859051,50.490803 79.093132,50.106964 
	C93.076172,49.754642 107.073975,49.988495 121.529236,49.896873 
M242.001389,103.076759 
	C242.003387,94.761131 242.178253,86.441116 241.967651,78.130875 
	C241.635345,65.018517 231.056854,55.550323 217.066040,56.216740 
	C171.755402,56.202190 126.444748,56.158604 81.134155,56.190670 
	C67.425163,56.200371 58.044983,65.772743 58.040234,79.544022 
	C58.030231,108.529594 58.037632,137.515167 58.037617,166.500748 
	C58.037605,183.658875 57.941433,200.817719 58.068829,217.974884 
	C58.160912,230.375793 67.343681,240.090256 79.105064,240.122498 
	C113.920799,240.217926 148.737061,240.177856 183.552734,240.070740 
	C185.160812,240.065796 187.182709,239.319382 188.308960,238.206787 
	C205.609818,221.115326 222.813705,203.925354 239.956390,186.675034 
	C241.000961,185.623917 241.925186,183.877792 241.928558,182.452759 
	C241.990463,156.303192 241.903000,130.153275 242.001389,103.076759 
z"/>
<path fill="#4E4E4E" opacity="1.000000" stroke="none" 
	d="
M241.847198,104.003433 
	C241.903000,130.153275 241.990463,156.303192 241.928558,182.452759 
	C241.925186,183.877792 241.000961,185.623917 239.956390,186.675034 
	C222.813705,203.925354 205.609818,221.115326 188.308960,238.206787 
	C187.182709,239.319382 185.160812,240.065796 183.552734,240.070740 
	C148.737061,240.177856 113.920799,240.217926 79.105064,240.122498 
	C67.343681,240.090256 58.160912,230.375793 58.068829,217.974884 
	C57.941433,200.817719 58.037605,183.658875 58.037617,166.500748 
	C58.037632,137.515167 58.030231,108.529594 58.040234,79.544022 
	C58.044983,65.772743 67.425163,56.200371 81.134155,56.190670 
	C126.444748,56.158604 171.755402,56.202190 217.537521,56.663338 
	C218.461945,58.333256 219.035233,59.526794 219.346710,60.785137 
	C220.605545,65.870674 225.927780,69.830917 223.255249,75.719269 
	C217.762268,70.202866 211.328964,67.986153 204.021652,67.983643 
	C188.691528,67.978386 173.361420,67.981674 158.031296,67.983345 
	C137.202347,67.985619 116.372177,67.853333 95.544838,68.038361 
	C80.314964,68.173668 69.868057,78.888214 69.855545,94.016769 
	C69.825645,130.175827 69.791260,166.335068 69.878746,202.493958 
	C69.916138,217.951157 80.580261,228.510376 96.000778,228.542206 
	C123.161644,228.598297 150.322693,228.565826 177.483673,228.565262 
	C178.648880,228.565231 180.071808,228.923935 180.920151,228.391434 
	C182.261322,227.549561 183.217285,226.094040 184.336288,224.898224 
	C183.187042,223.933426 182.170242,222.649658 180.848297,222.100754 
	C179.709259,221.627792 178.222580,221.986923 176.889603,221.986969 
	C150.061890,221.987762 123.234177,221.998306 96.406464,221.987915 
	C83.804871,221.983032 76.010841,214.384125 75.996704,201.928513 
	C75.955849,165.936096 75.961227,129.943588 75.995163,93.951164 
	C76.005905,82.563866 83.914940,74.284172 95.407143,74.240334 
	C131.732239,74.101746 168.058548,74.132401 204.383789,74.262810 
	C215.909943,74.304184 223.793640,82.297478 224.053162,93.765205 
	C224.200150,100.260551 224.084366,106.761871 224.084946,113.260506 
	C224.085907,123.702690 224.085205,134.144867 224.085205,144.600266 
	C218.188858,144.600266 212.817413,144.600266 207.212723,144.600266 
	C207.212723,133.072876 207.247803,121.925430 207.203415,110.778305 
	C207.153381,98.215988 200.968979,91.992317 188.566772,91.985817 
	C163.572006,91.972717 138.577240,91.974091 113.582481,91.990486 
	C101.080109,91.998688 94.887085,98.160812 94.872566,110.674316 
	C94.843765,135.502411 94.852943,160.330582 94.872017,185.158707 
	C94.882385,198.650879 100.810616,204.544678 114.407547,204.559509 
	C137.402710,204.584579 160.410782,204.096985 183.388824,204.724823 
	C200.408310,205.189865 208.468964,199.268753 207.314529,180.859634 
	C206.713776,171.279999 207.208694,161.631653 207.208694,151.579910 
	C213.292252,151.579910 218.774826,151.408768 224.241180,151.633072 
	C228.764999,151.818680 230.419418,150.050491 230.367432,145.482727 
	C230.156937,126.991524 230.219208,108.497231 230.541626,90.009804 
	C232.158676,91.117126 233.659851,92.039322 234.623611,93.355133 
	C237.156387,96.813080 239.455200,100.442383 241.847198,104.003433 
z"/>
<path fill="#525252" opacity="1.000000" stroke="none" 
	d="
M223.551849,75.919502 
	C225.927780,69.830917 220.605545,65.870674 219.346710,60.785137 
	C219.035233,59.526794 218.461945,58.333256 217.996811,56.753517 
	C231.056854,55.550323 241.635345,65.018517 241.967651,78.130875 
	C242.178253,86.441116 242.003387,94.761131 241.924301,103.540092 
	C239.455200,100.442383 237.156387,96.813080 234.623611,93.355133 
	C233.659851,92.039322 232.158676,91.117126 230.432068,89.640549 
	C227.825073,84.816879 225.688461,80.368195 223.551849,75.919502 
z"/>
<path fill="#F9F9F9" opacity="1.000000" stroke="none" 
	d="
M223.255249,75.719269 
	C225.688461,80.368195 227.825073,84.816879 230.071259,89.634819 
	C230.219208,108.497231 230.156937,126.991524 230.367432,145.482727 
	C230.419418,150.050491 228.764999,151.818680 224.241180,151.633072 
	C218.774826,151.408768 213.292252,151.579910 207.208694,151.579910 
	C207.208694,161.631653 206.713776,171.279999 207.314529,180.859634 
	C208.468964,199.268753 200.408310,205.189865 183.388824,204.724823 
	C160.410782,204.096985 137.402710,204.584579 114.407547,204.559509 
	C100.810616,204.544678 94.882385,198.650879 94.872017,185.158707 
	C94.852943,160.330582 94.843765,135.502411 94.872566,110.674316 
	C94.887085,98.160812 101.080109,91.998688 113.582481,91.990486 
	C138.577240,91.974091 163.572006,91.972717 188.566772,91.985817 
	C200.968979,91.992317 207.153381,98.215988 207.203415,110.778305 
	C207.247803,121.925430 207.212723,133.072876 207.212723,144.600266 
	C212.817413,144.600266 218.188858,144.600266 224.085205,144.600266 
	C224.085205,134.144867 224.085907,123.702690 224.084946,113.260506 
	C224.084366,106.761871 224.200150,100.260551 224.053162,93.765205 
	C223.793640,82.297478 215.909943,74.304184 204.383789,74.262810 
	C168.058548,74.132401 131.732239,74.101746 95.407143,74.240334 
	C83.914940,74.284172 76.005905,82.563866 75.995163,93.951164 
	C75.961227,129.943588 75.955849,165.936096 75.996704,201.928513 
	C76.010841,214.384125 83.804871,221.983032 96.406464,221.987915 
	C123.234177,221.998306 150.061890,221.987762 176.889603,221.986969 
	C178.222580,221.986923 179.709259,221.627792 180.848297,222.100754 
	C182.170242,222.649658 183.187042,223.933426 184.336288,224.898224 
	C183.217285,226.094040 182.261322,227.549561 180.920151,228.391434 
	C180.071808,228.923935 178.648880,228.565231 177.483673,228.565262 
	C150.322693,228.565826 123.161644,228.598297 96.000778,228.542206 
	C80.580261,228.510376 69.916138,217.951157 69.878746,202.493958 
	C69.791260,166.335068 69.825645,130.175827 69.855545,94.016769 
	C69.868057,78.888214 80.314964,68.173668 95.544838,68.038361 
	C116.372177,67.853333 137.202347,67.985619 158.031296,67.983345 
	C173.361420,67.981674 188.691528,67.978386 204.021652,67.983643 
	C211.328964,67.986153 217.762268,70.202866 223.255249,75.719269 
M200.842239,136.500015 
	C200.841248,127.510101 200.944397,118.518593 200.806000,109.530792 
	C200.697113,102.459305 197.028809,98.819618 189.978394,98.605949 
	C185.321182,98.464813 180.656357,98.572380 175.994949,98.571556 
	C155.018539,98.567833 134.042023,98.522118 113.065811,98.584938 
	C105.491455,98.607628 101.347580,101.888130 101.307106,108.498650 
	C101.145050,134.967728 101.154823,161.438843 101.302780,187.908066 
	C101.336044,193.858932 105.261398,197.878082 110.977615,197.906982 
	C137.779846,198.042542 164.583664,198.056076 191.385696,197.901489 
	C197.485504,197.866302 200.903885,193.632889 200.889053,187.442886 
	C200.849167,170.795319 200.854691,154.147659 200.842239,136.500015 
z"/>
<path fill="#4F4F4F" opacity="1.000000" stroke="none" 
	d="
M200.842224,137.000031 
	C200.854691,154.147659 200.849167,170.795319 200.889053,187.442886 
	C200.903885,193.632889 197.485504,197.866302 191.385696,197.901489 
	C164.583664,198.056076 137.779846,198.042542 110.977615,197.906982 
	C105.261398,197.878082 101.336044,193.858932 101.302780,187.908066 
	C101.154823,161.438843 101.145050,134.967728 101.307106,108.498650 
	C101.347580,101.888130 105.491455,98.607628 113.065811,98.584938 
	C134.042023,98.522118 155.018539,98.567833 175.994949,98.571556 
	C180.656357,98.572380 185.321182,98.464813 189.978394,98.605949 
	C197.028809,98.819618 200.697113,102.459305 200.806000,109.530792 
	C200.944397,118.518593 200.841248,127.510101 200.842224,137.000031 
M112.888702,150.499481 
	C112.888702,156.600830 112.888702,162.702179 112.888702,169.043350 
	C114.974037,168.930573 116.386665,168.854187 118.311325,168.750107 
	C118.311325,156.453415 118.311325,144.478165 118.311325,131.432449 
	C125.902512,143.215225 133.056808,153.853714 139.660980,164.823395 
	C141.974289,168.665848 144.533188,169.769257 148.763824,168.621658 
	C148.763824,153.943329 148.763824,139.198517 148.763824,124.345535 
	C147.039963,124.345535 145.515579,124.345535 143.632599,124.345535 
	C143.632599,136.538681 143.632599,148.395432 143.632599,161.525345 
	C136.192612,149.817947 129.269775,139.284882 122.763992,128.500259 
	C120.338249,124.479118 117.616180,122.908981 112.888680,124.620804 
	C112.888680,132.891129 112.888680,141.195374 112.888702,150.499481 
M159.880829,150.499466 
	C159.880829,156.597168 159.880829,162.694855 159.880829,168.724121 
	C161.951462,168.724121 163.359375,168.724121 165.282959,168.724121 
	C165.282959,161.774551 165.282959,155.089951 165.282959,147.250305 
	C170.892593,153.869171 176.002274,159.332642 180.413864,165.311234 
	C183.149811,169.018951 186.186111,169.550247 190.686371,168.574615 
	C183.894821,160.798767 177.370850,153.329254 170.625412,145.606216 
	C176.855148,138.562225 182.963028,131.656036 189.269501,124.525269 
	C183.389450,123.710548 183.379120,123.701668 180.316269,127.265038 
	C175.544342,132.816818 170.788055,138.382034 166.025131,143.941559 
	C165.647156,143.740875 165.269180,143.540207 164.891205,143.339523 
	C164.891205,136.940063 164.891205,130.540588 164.891205,123.915482 
	C162.992157,124.053558 161.576263,124.156509 159.880814,124.279785 
	C159.880814,132.903091 159.880814,141.201340 159.880829,150.499466 
z"/>
<path fill="#FAFAFA" opacity="1.000000" stroke="none" 
	d="
M112.888687,149.999542 
	C112.888680,141.195374 112.888680,132.891129 112.888680,124.620804 
	C117.616180,122.908981 120.338249,124.479118 122.763992,128.500259 
	C129.269775,139.284882 136.192612,149.817947 143.632599,161.525345 
	C143.632599,148.395432 143.632599,136.538681 143.632599,124.345535 
	C145.515579,124.345535 147.039963,124.345535 148.763824,124.345535 
	C148.763824,139.198517 148.763824,153.943329 148.763824,168.621658 
	C144.533188,169.769257 141.974289,168.665848 139.660980,164.823395 
	C133.056808,153.853714 125.902512,143.215225 118.311325,131.432449 
	C118.311325,144.478165 118.311325,156.453415 118.311325,168.750107 
	C116.386665,168.854187 114.974037,168.930573 112.888702,169.043350 
	C112.888702,162.702179 112.888702,156.600830 112.888687,149.999542 
z"/>
<path fill="#F9F9F9" opacity="1.000000" stroke="none" 
	d="
M159.880829,149.999542 
	C159.880814,141.201340 159.880814,132.903091 159.880814,124.279785 
	C161.576263,124.156509 162.992157,124.053558 164.891205,123.915482 
	C164.891205,130.540588 164.891205,136.940063 164.891205,143.339523 
	C165.269180,143.540207 165.647156,143.740875 166.025131,143.941559 
	C170.788055,138.382034 175.544342,132.816818 180.316269,127.265038 
	C183.379120,123.701668 183.389450,123.710548 189.269501,124.525269 
	C182.963028,131.656036 176.855148,138.562225 170.625412,145.606216 
	C177.370850,153.329254 183.894821,160.798767 190.686371,168.574615 
	C186.186111,169.550247 183.149811,169.018951 180.413864,165.311234 
	C176.002274,159.332642 170.892593,153.869171 165.282959,147.250305 
	C165.282959,155.089951 165.282959,161.774551 165.282959,168.724121 
	C163.359375,168.724121 161.951462,168.724121 159.880829,168.724121 
	C159.880829,162.694855 159.880829,156.597168 159.880829,149.999542 
z"/>
</svg>